<svg xmlns="http://www.w3.org/2000/svg" width="52.54" height="49.866" viewBox="0 0 52.54 49.866"><defs><style>.a,.b,.c,.d,.g{fill:none;}.a,.b{opacity:0.52;}.b{stroke:#0f3;}.b,.c,.d{stroke-width:2px;}.c{stroke:rgba(199,199,0,0.76);stroke-linecap:round;}.d{stroke:#00b1ff;opacity:0.63;}.e,.f{stroke:none;}.f{fill:#e600d7;}</style></defs><g transform="translate(-851.587 -297.118)"><g transform="translate(1897.484 840.802) rotate(-159)"><g class="a" transform="translate(1126.977 96.345)"><path class="e" d="M8.4,4.484a3,3,0,0,1,5.193,0l5.8,10.012A3,3,0,0,1,16.8,19H5.2a3,3,0,0,1-2.6-4.5Z"/><path class="f" d="M 10.99999904632568 4.987583160400391 C 10.8266487121582 4.987583160400391 10.39529895782471 5.036203384399414 10.13456916809082 5.486553192138672 L 4.337909698486328 15.49896335601807 C 4.076648712158203 15.95024299621582 4.250249862670898 16.3489933013916 4.337018966674805 16.49948310852051 C 4.423778533935547 16.64997291564941 4.681888580322266 17.00000381469727 5.203338623046875 17.00000381469727 L 16.79665946960449 17.00000381469727 C 17.3181095123291 17.00000381469727 17.57621955871582 16.64997291564941 17.66297912597656 16.49948310852051 C 17.74974822998047 16.3489933013916 17.92334938049316 15.95024299621582 17.66208839416504 15.49896335601807 L 11.86542892456055 5.486553192138672 C 11.60469913482666 5.036203384399414 11.17334938049316 4.987583160400391 10.99999904632568 4.987583160400391 M 10.99999904632568 2.987588882446289 C 12.00926399230957 2.987588882446289 13.01852893829346 3.486553192138672 13.59627914428711 4.48448371887207 L 19.3929386138916 14.49689292907715 C 20.55082893371582 16.49689292907715 19.10765838623047 19.00000381469727 16.79665946960449 19.00000381469727 L 5.203338623046875 19.00000381469727 C 2.892339706420898 19.00000381469727 1.449169158935547 16.49689292907715 2.607059478759766 14.49689292907715 L 8.403718948364258 4.48448371887207 C 8.98146915435791 3.486553192138672 9.990734100341797 2.987588882446289 10.99999904632568 2.987588882446289 Z"/></g><g class="b" transform="translate(1138.977 103.345)"><circle class="e" cx="10.5" cy="10.5" r="10.5"/><circle class="g" cx="10.5" cy="10.5" r="9.5"/></g></g><g transform="translate(884.904 314.411) rotate(-83)"><line class="c" y1="15.836" x2="15.836" transform="translate(0 0)"/><line class="c" x1="15.836" y1="15.836" transform="translate(0 0)"/></g><g class="d" transform="translate(877.448 321.721) rotate(-83)"><rect class="e" width="16" height="16"/><rect class="g" x="1" y="1" width="14" height="14"/></g></g></svg>