<svg xmlns="http://www.w3.org/2000/svg" width="13" height="12" viewBox="0 0 13 12">
  <g id="Triangle" fill="none" opacity="0.52">
    <path d="M5.621,1.623a1,1,0,0,1,1.759,0l4.821,8.9A1,1,0,0,1,11.321,12H1.679A1,1,0,0,1,.8,10.524Z" stroke="none"/>
    <path d="M 6.499989986419678 2.099589347839355 L 6.5 2.099589347839355 L 1.679256439208984 11 L 11.32090854644775 10.99971961975098 L 6.499989986419678 2.099589347839355 M 6.5 1.099592208862305 C 6.845085144042969 1.099592208862305 7.190169811248779 1.274164199829102 7.379290103912354 1.623310089111328 L 12.20034980773926 10.52371978759766 C 12.56126022338867 11.19001960754395 12.07882022857666 12 11.32104969024658 12 L 1.678950309753418 12 C 0.9211797714233398 12 0.4387397766113281 11.19001960754395 0.7996501922607422 10.52371978759766 L 5.620709896087646 1.623310089111328 C 5.809830188751221 1.274164199829102 6.154914855957031 1.099592208862305 6.5 1.099592208862305 Z" stroke="none" fill="#e600d7"/>
  </g>
</svg>
